<?xml version="1.0" encoding="UTF-8"?>
<svg id="Vrstva_1" xmlns="http://www.w3.org/2000/svg" xmlns:xlink="http://www.w3.org/1999/xlink" version="1.1" viewBox="0 0 620 541.29">
  <!-- Generator: Adobe Illustrator 30.0.0, SVG Export Plug-In . SVG Version: 2.1.1 Build 123)  -->
  <defs>
    <style>
      .st0, .st1, .st2 {
        fill: none;
      }

      .st3, .st4, .st5 {
        isolation: isolate;
      }

      .st3, .st5 {
        font-family: ArialMT, Arial;
        font-size: 10px;
      }

      .st6 {
        fill: #d45a6a;
        fill-opacity: .95;
      }

      .st6, .st1, .st2 {
        stroke-linejoin: round;
      }

      .st6, .st2 {
        stroke: #d45a6a;
        stroke-opacity: .95;
        stroke-width: 1.17px;
      }

      .st1 {
        stroke: #000;
        stroke-width: .96px;
      }

      .st5 {
        letter-spacing: .04em;
      }

      .st7 {
        clip-path: url(#clippath-1);
      }

      .st8 {
        fill: #fff;
      }

      .st9 {
        clip-path: url(#clippath);
      }
    </style>
    <clipPath id="clippath">
      <rect class="st0" y="-.33" width="618.76" height="541.62"/>
    </clipPath>
    <clipPath id="clippath-1">
      <rect class="st0" y="-.33" width="618.76" height="541.62"/>
    </clipPath>
  </defs>
  <rect class="st8" y="-.33" width="618.76" height="541.62"/>
  <g class="st9">
    <rect class="st8" y="-.33" width="618.76" height="541.62"/>
  </g>
  <g class="st7">
    <g>
      <line class="st1" x1="309.97" y1="550.06" x2="309.97" y2="-6.02"/>
      <line class="st1" x1="11.54" y1="270.56" x2="608.76" y2="270.65"/>
      <line class="st2" x1="309.97" y1="270.57" x2="174.25" y2="258.88"/>
      <polygon class="st6" points="181.19 255.64 174.25 258.88 180.53 263.27 181.19 255.64"/>
      <line class="st2" x1="309.97" y1="270.57" x2="164.02" y2="272.89"/>
      <polygon class="st6" points="170.59 268.96 164.02 272.89 170.72 276.61 170.59 268.96"/>
      <line class="st2" x1="309.97" y1="270.57" x2="175.91" y2="315.96"/>
      <polygon class="st6" points="180.97 310.21 175.91 315.96 183.41 317.46 180.97 310.21"/>
      <line class="st2" x1="309.97" y1="270.57" x2="175.8" y2="321.95"/>
      <polygon class="st6" points="180.62 316.01 175.8 321.95 183.36 323.15 180.62 316.01"/>
      <line class="st2" x1="309.97" y1="270.57" x2="199.3" y2="228.64"/>
      <polygon class="st6" points="206.84 227.41 199.3 228.64 204.13 234.56 206.84 227.41"/>
      <line class="st2" x1="309.97" y1="270.57" x2="228.5" y2="202.68"/>
      <polygon class="st6" points="236.04 203.97 228.5 202.68 231.14 209.86 236.04 203.97"/>
      <line class="st2" x1="309.97" y1="270.57" x2="330.42" y2="295.45"/>
      <polygon class="st6" points="323.26 292.76 330.42 295.45 329.18 287.91 323.26 292.76"/>
      <line class="st2" x1="309.97" y1="270.57" x2="258.7" y2="383.19"/>
      <polygon class="st6" points="257.95 375.56 258.7 383.19 264.92 378.73 257.95 375.56"/>
      <line class="st2" x1="309.97" y1="270.57" x2="350.09" y2="247.67"/>
      <polygon class="st6" points="346.23 254.28 350.09 247.67 342.44 247.63 346.23 254.28"/>
      <line class="st2" x1="309.97" y1="270.57" x2="333.57" y2="469.4"/>
      <polygon class="st6" points="329 463.27 333.57 469.4 336.58 462.37 329 463.27"/>
      <line class="st2" x1="309.97" y1="270.57" x2="364.38" y2="238.61"/>
      <polygon class="st6" points="360.6 245.27 364.38 238.61 356.73 238.67 360.6 245.27"/>
      <line class="st2" x1="309.97" y1="270.57" x2="161.5" y2="330.76"/>
      <polygon class="st6" points="166.2 324.73 161.5 330.76 169.07 331.82 166.2 324.73"/>
      <line class="st2" x1="309.97" y1="270.57" x2="326.94" y2="305.93"/>
      <polygon class="st6" points="320.62 301.62 326.94 305.93 327.52 298.31 320.62 301.62"/>
      <line class="st2" x1="309.97" y1="270.57" x2="310.74" y2="408.7"/>
      <polygon class="st6" points="306.88 402.11 310.74 408.7 314.53 402.06 306.88 402.11"/>
      <line class="st2" x1="309.97" y1="270.57" x2="318.34" y2="282.37"/>
      <polygon class="st6" points="311.39 279.19 318.34 282.37 317.62 274.76 311.39 279.19"/>
      <line class="st2" x1="309.97" y1="270.57" x2="299.23" y2="209.99"/>
      <polygon class="st6" points="304.16 215.84 299.23 209.99 296.63 217.17 304.16 215.84"/>
      <line class="st2" x1="309.97" y1="270.57" x2="207.2" y2="210.38"/>
      <polygon class="st6" points="214.85 210.42 207.2 210.38 211 217.04 214.85 210.42"/>
      <line class="st2" x1="309.97" y1="270.57" x2="266.75" y2="133.64"/>
      <polygon class="st6" points="272.39 138.81 266.75 133.64 265.09 141.12 272.39 138.81"/>
      <line class="st2" x1="309.97" y1="270.57" x2="421.38" y2="175.64"/>
      <polygon class="st6" points="418.83 182.86 421.38 175.64 413.86 177.03 418.83 182.86"/>
      <line class="st2" x1="309.97" y1="270.57" x2="170.2" y2="296.02"/>
      <polygon class="st6" points="176.03 291.06 170.2 296.02 177.41 298.59 176.03 291.06"/>
      <line class="st2" x1="309.97" y1="270.57" x2="187.5" y2="237.94"/>
      <polygon class="st6" points="194.9 235.94 187.5 237.94 192.93 243.34 194.9 235.94"/>
      <line class="st2" x1="309.97" y1="270.57" x2="432.43" y2="303.21"/>
      <polygon class="st6" points="425.05 305.19 432.43 303.21 427.02 297.8 425.05 305.19"/>
      <line class="st2" x1="309.97" y1="270.57" x2="441.32" y2="322.01"/>
      <polygon class="st6" points="433.75 323.15 441.32 322.01 436.55 316.03 433.75 323.15"/>
      <line class="st2" x1="309.97" y1="270.57" x2="430.6" y2="248.75"/>
      <polygon class="st6" points="424.77 253.69 430.6 248.75 423.4 246.16 424.77 253.69"/>
      <line class="st2" x1="309.97" y1="270.57" x2="427.76" y2="194.72"/>
      <polygon class="st6" points="424.27 201.53 427.76 194.72 420.12 195.09 424.27 201.53"/>
      <line class="st2" x1="309.97" y1="270.57" x2="284.15" y2="296.85"/>
      <polygon class="st6" points="286.06 289.44 284.15 296.85 291.51 294.8 286.06 289.44"/>
      <line class="st2" x1="309.97" y1="270.57" x2="329.73" y2="199.21"/>
      <polygon class="st6" points="331.64 206.62 329.73 199.21 324.28 204.57 331.64 206.62"/>
      <line class="st2" x1="309.97" y1="270.57" x2="394.89" y2="244.1"/>
      <polygon class="st6" points="389.7 249.73 394.89 244.1 387.43 242.43 389.7 249.73"/>
      <line class="st2" x1="309.97" y1="270.57" x2="462.9" y2="266.65"/>
      <polygon class="st6" points="456.38 270.65 462.9 266.65 456.18 263 456.38 270.65"/>
      <line class="st2" x1="309.97" y1="270.57" x2="284.01" y2="362.39"/>
      <polygon class="st6" points="282.14 354.97 284.01 362.39 289.5 357.06 282.14 354.97"/>
      <line class="st2" x1="309.97" y1="270.57" x2="350.35" y2="89.46"/>
      <polygon class="st6" points="352.64 96.76 350.35 89.46 345.17 95.09 352.64 96.76"/>
      <line class="st2" x1="309.97" y1="270.57" x2="270.71" y2="375.54"/>
      <polygon class="st6" points="269.45 367.99 270.71 375.54 276.62 370.66 269.45 367.99"/>
      <line class="st2" x1="309.97" y1="270.57" x2="165.16" y2="285.57"/>
      <polygon class="st6" points="171.35 281.08 165.16 285.57 172.13 288.69 171.35 281.08"/>
      <line class="st2" x1="309.97" y1="270.57" x2="269.94" y2="114.83"/>
      <polygon class="st6" points="275.28 120.3 269.94 114.83 267.87 122.2 275.28 120.3"/>
      <line class="st2" x1="309.97" y1="270.57" x2="358.9" y2="411.7"/>
      <polygon class="st6" points="353.11 406.69 358.9 411.7 360.35 404.18 353.11 406.69"/>
      <line class="st2" x1="309.97" y1="270.57" x2="276.48" y2="317.05"/>
      <polygon class="st6" points="277.25 309.44 276.48 317.05 283.46 313.91 277.25 309.44"/>
      <line class="st2" x1="309.97" y1="270.57" x2="226.23" y2="289.61"/>
      <polygon class="st6" points="231.83 284.41 226.23 289.61 233.53 291.87 231.83 284.41"/>
      <line class="st2" x1="309.97" y1="270.57" x2="359.83" y2="406.38"/>
      <polygon class="st6" points="353.96 401.48 359.83 406.38 361.14 398.85 353.96 401.48"/>
      <line class="st2" x1="309.97" y1="270.57" x2="250.63" y2="108.34"/>
      <polygon class="st6" points="256.48 113.25 250.63 108.34 249.3 115.89 256.48 113.25"/>
      <line class="st2" x1="309.97" y1="270.57" x2="370.16" y2="220.95"/>
      <polygon class="st6" points="367.47 228.11 370.16 220.95 362.61 222.22 367.47 228.11"/>
      <line class="st2" x1="309.97" y1="270.57" x2="363.17" y2="228.91"/>
      <polygon class="st6" points="360.31 236.01 363.17 228.91 355.58 229.99 360.31 236.01"/>
      <line class="st2" x1="309.97" y1="270.57" x2="207.22" y2="370.35"/>
      <polygon class="st6" points="209.3 362.99 207.22 370.35 214.63 368.48 209.3 362.99"/>
      <line class="st2" x1="309.97" y1="270.57" x2="269.26" y2="226.78"/>
      <polygon class="st6" points="276.58 229.03 269.26 226.78 270.98 234.24 276.58 229.03"/>
      <line class="st2" x1="309.97" y1="270.57" x2="396.5" y2="389.79"/>
      <polygon class="st6" points="389.51 386.67 396.5 389.79 395.7 382.17 389.51 386.67"/>
      <line class="st2" x1="309.97" y1="270.57" x2="230.94" y2="95.02"/>
      <polygon class="st6" points="237.15 99.49 230.94 95.02 230.17 102.63 237.15 99.49"/>
      <line class="st2" x1="309.97" y1="270.57" x2="228.83" y2="315.72"/>
      <polygon class="st6" points="232.76 309.16 228.83 315.72 236.49 315.84 232.76 309.16"/>
      <line class="st2" x1="309.97" y1="270.57" x2="431.5" y2="326.97"/>
      <polygon class="st6" points="423.88 327.65 431.5 326.97 427.1 320.71 423.88 327.65"/>
      <line class="st2" x1="309.97" y1="270.57" x2="425.76" y2="245.54"/>
      <polygon class="st6" points="420.1 250.68 425.76 245.54 418.48 243.19 420.1 250.68"/>
      <line class="st2" x1="309.97" y1="270.57" x2="282.05" y2="455.23"/>
      <polygon class="st6" points="279.26 448.11 282.05 455.23 286.83 449.25 279.26 448.11"/>
      <g class="st4">
        <text class="st3" transform="translate(113.38 255.1) rotate(5)"><tspan x="0" y="0">HDP na obyv.</tspan></text>
      </g>
      <g class="st4">
        <text class="st3" transform="translate(87.1 279.51) rotate(-1)"><tspan x="0" y="0">Kontrola korupce</tspan></text>
      </g>
      <g class="st4">
        <text class="st3" transform="translate(128.83 329.43) rotate(-19)"><tspan x="0" y="0">Délka života</tspan></text>
      </g>
      <g class="st4">
        <text class="st3" transform="translate(100.41 349.06) rotate(-21)"><tspan x="0" y="0">Výdaje na výzkum</tspan></text>
      </g>
      <g class="st4">
        <text class="st3" transform="translate(128.66 203.72) rotate(21)"><tspan x="0" y="0">High-tech export</tspan></text>
      </g>
      <g class="st4">
        <text class="st3" transform="translate(184.96 168.31) rotate(40)"><tspan x="0" y="0">VŠ vzdělání</tspan></text>
      </g>
      <g class="st4">
        <text class="st3" transform="translate(334.64 301.86) rotate(51)"><tspan x="0" y="0">Spotřeba alkoholu</tspan></text>
      </g>
      <g class="st4">
        <text class="st3" transform="translate(231.04 451.81) rotate(-66)"><tspan x="0" y="0">Hustota osídlení</tspan></text>
      </g>
      <g class="st4">
        <text class="st3" transform="translate(369.54 241.5) rotate(-30)"><tspan x="0" y="0">Nezaměstnanost</tspan></text>
      </g>
      <g class="st4">
        <text class="st3" transform="translate(332.2 473.52) rotate(83)"><tspan x="0" y="0">Sociál. odvody</tspan></text>
      </g>
      <g class="st4">
        <text class="st3" transform="translate(366.53 252.55) rotate(-30)"><tspan x="0" y="0">Výdaje na obranu</tspan></text>
      </g>
      <g class="st4">
        <text class="st3" transform="translate(75.01 371.31) rotate(-22)"><tspan x="0" y="0">Kvalita infrastruktury</tspan></text>
      </g>
      <g class="st4">
        <text class="st3" transform="translate(327.96 311.08) rotate(64)"><tspan x="0" y="0">Lesní plocha</tspan></text>
      </g>
      <g class="st4">
        <text class="st3" transform="translate(312.2 412.35) rotate(90)"><tspan x="0" y="0">Chráněná území</tspan></text>
      </g>
      <g class="st4">
        <text class="st3" transform="translate(331.56 288.56) rotate(45)"><tspan x="0" y="0">GINI index</tspan></text>
      </g>
      <g class="st4">
        <text class="st3" transform="translate(280.45 112.81) rotate(80)"><tspan x="0" y="0">Ženy v managementu</tspan></text>
      </g>
      <g class="st4">
        <text class="st3" transform="translate(133.54 170.14) rotate(30)"><tspan x="0" y="0">Ženy v parlamentu</tspan></text>
      </g>
      <g class="st4">
        <text class="st3" transform="translate(236.22 47.92) rotate(72)"><tspan x="0" y="0">Obnovitelná energie</tspan></text>
      </g>
      <g class="st4">
        <text class="st3" transform="translate(424.36 176.02) rotate(-40)"><tspan x="0" y="0">Práce v zemědělství</tspan></text>
      </g>
      <g class="st4">
        <text class="st3" transform="translate(88.63 313.58) rotate(-10)"><tspan x="0" y="0">Práce ve službách</tspan></text>
      </g>
      <g class="st4">
        <text class="st3" transform="translate(107.55 218) rotate(15)"><tspan x="0" y="0">Městská populace</tspan></text>
      </g>
      <g class="st4">
        <text class="st3" transform="translate(436.56 306.96) rotate(15)"><tspan x="0" y="0">Venkovská populace</tspan></text>
      </g>
      <g class="st4">
        <text class="st3" transform="translate(444.8 325.58) rotate(21)"><tspan x="0" y="0">Znečištění ovzduší</tspan></text>
      </g>
      <g class="st4">
        <text class="st3" transform="translate(435.36 252.03) rotate(-10)"><tspan x="0" y="0">Úmrtnost v dopravě</tspan></text>
      </g>
      <g class="st4">
        <text class="st3" transform="translate(433.9 194.31) rotate(-33)"><tspan x="0" y="0">Příjmy ze zahraničí</tspan></text>
      </g>
      <g class="st4">
        <text class="st3" transform="translate(258.55 317.27) rotate(-45)"><tspan x="0" y="0">Export</tspan></text>
      </g>
      <g class="st4">
        <text class="st3" transform="translate(335.92 198.01) rotate(-75)"><tspan x="0" y="0">Plodnost</tspan></text>
      </g>
      <g class="st4">
        <text class="st3" transform="translate(399.19 245.76) rotate(-17)"><tspan x="0" y="0">Index míru</tspan></text>
      </g>
      <g class="st4">
        <text class="st3" transform="translate(467.73 267.32) rotate(-1)"><tspan x="0" y="0">Index pozitivního míru</tspan></text>
      </g>
      <g class="st4">
        <text class="st3" transform="translate(268.59 430.83) rotate(-74)"><tspan x="0" y="0">Index terorismu</tspan></text>
      </g>
      <g class="st4">
        <text class="st3" transform="translate(355.65 85.73) rotate(-77)"><tspan x="0" y="0">Ekologická rizika</tspan></text>
      </g>
      <g class="st4">
        <text class="st5" transform="translate(259.4 422.21) rotate(-69)"><tspan x="0" y="0">Dluh/HDP</tspan></text>
      </g>
      <g class="st4">
        <text class="st3" transform="translate(102.84 294.75) rotate(-6)"><tspan x="0" y="0">LGBT rovnost</tspan></text>
      </g>
      <g class="st4">
        <text class="st3" transform="translate(247.87 33.4) rotate(76)"><tspan x="0" y="0">Poč. sex. partnerů</tspan></text>
      </g>
      <g class="st4">
        <text class="st3" transform="translate(351.51 417.9) rotate(71)"><tspan x="0" y="0">Věk ztráty panenství</tspan></text>
      </g>
      <g class="st4">
        <text class="st3" transform="translate(232.57 382.1) rotate(-54)"><tspan x="0" y="0">Index promiskuity</tspan></text>
      </g>
      <g class="st4">
        <text class="st3" transform="translate(138.04 314.43) rotate(-13)"><tspan x="0" y="0">Spotřeba marihuany</tspan></text>
      </g>
      <g class="st4">
        <text class="st3" transform="translate(361.45 412.35) rotate(70)"><tspan x="0" y="0">Nízká důvěra ve vládu</tspan></text>
      </g>
      <g class="st4">
        <text class="st3" transform="translate(209.36 7.64) rotate(70)"><tspan x="0" y="0">Vysoká důvěra ve vládu</tspan></text>
      </g>
      <g class="st4">
        <text class="st3" transform="translate(360.93 221.32) rotate(-40)"><tspan x="0" y="0">Křesťané</tspan></text>
      </g>
      <g class="st4">
        <text class="st3" transform="translate(377.51 225.24) rotate(-38)"><tspan x="0" y="0">Muslimové</tspan></text>
      </g>
      <g class="st4">
        <text class="st3" transform="translate(168.53 411.3) rotate(-44)"><tspan x="0" y="0">Bez vyznání</tspan></text>
      </g>
      <g class="st4">
        <text class="st3" transform="translate(238.29 196.6) rotate(47)"><tspan x="0" y="0">Hinduisté</tspan></text>
      </g>
      <g class="st4">
        <text class="st3" transform="translate(396.36 394.6) rotate(54)"><tspan x="0" y="0">Bydlení bez hypotéky</tspan></text>
      </g>
      <g class="st4">
        <text class="st3" transform="translate(189.96 12.64) rotate(66)"><tspan x="0" y="0">Bydlení s hypotékou</tspan></text>
      </g>
      <g class="st4">
        <text class="st3" transform="translate(156.07 359.65) rotate(-29)"><tspan x="0" y="0">Sportovní úspěchy</tspan></text>
      </g>
      <g class="st4">
        <text class="st3" transform="translate(435.55 335.06) rotate(25)"><tspan x="0" y="0">Cena nemovitostí/příjem</tspan></text>
      </g>
      <g class="st4">
        <text class="st3" transform="translate(427.27 244.51) rotate(-12)"><tspan x="0" y="0">Svoboda tisku</tspan></text>
      </g>
      <g class="st4">
        <text class="st3" transform="translate(272.87 525.24) rotate(-81)"><tspan x="0" y="0">Sociální výdaje</tspan></text>
      </g>
    </g>
  </g>
</svg>