<?xml version="1.0" encoding="UTF-8"?>
<svg id="Vrstva_1" xmlns="http://www.w3.org/2000/svg" xmlns:xlink="http://www.w3.org/1999/xlink" version="1.1" viewBox="0 0 371.03 440">
  <!-- Generator: Adobe Illustrator 30.0.0, SVG Export Plug-In . SVG Version: 2.1.1 Build 123)  -->
  <defs>
    <style>
      .st0, .st1, .st2 {
        fill: none;
      }

      .st3 {
        font-family: ArialMT, Arial;
        font-size: 8.54px;
        isolation: isolate;
      }

      .st4 {
        fill: #d45a6a;
        fill-opacity: .95;
      }

      .st4, .st1, .st2 {
        stroke-linejoin: round;
      }

      .st4, .st2 {
        stroke: #d45a6a;
        stroke-opacity: .95;
        stroke-width: 1.17px;
      }

      .st1 {
        stroke: #000;
        stroke-width: .96px;
      }

      .st5 {
        clip-path: url(#clippath-1);
      }

      .st6 {
        clip-path: url(#clippath-2);
      }

      .st7 {
        fill: #fff;
      }

      .st8 {
        letter-spacing: .04em;
      }
    </style>
    <clipPath id="clippath-1">
      <rect class="st0" x="11.62" y="0" width="356.77" height="440"/>
    </clipPath>
    <clipPath id="clippath-2">
      <rect class="st0" y="0" width="368.39" height="440"/>
    </clipPath>
  </defs>
  <rect class="st7" y="0" width="371.03" height="440"/>
  <g class="st5">
    <rect class="st7" y="0" width="371.03" height="440"/>
  </g>
  <g class="st6">
    <g>
      <line class="st2" x1="188.35" y1="213.43" x2="87.77" y2="204.77"/>
      <polygon class="st4" points="92.91 202.37 87.77 204.77 92.42 208.02 92.91 202.37"/>
      <line class="st2" x1="188.35" y1="213.43" x2="80.19" y2="215.15"/>
      <polygon class="st4" points="85.06 212.24 80.19 215.15 85.15 217.91 85.06 212.24"/>
      <line class="st2" x1="188.35" y1="213.43" x2="89" y2="247.07"/>
      <polygon class="st4" points="92.75 242.81 89 247.07 94.56 248.18 92.75 242.81"/>
      <line class="st2" x1="188.35" y1="213.43" x2="88.92" y2="251.51"/>
      <polygon class="st4" points="92.49 247.11 88.92 251.51 94.52 252.4 92.49 247.11"/>
      <line class="st2" x1="188.35" y1="213.43" x2="106.33" y2="182.36"/>
      <polygon class="st4" points="111.92 181.45 106.33 182.36 109.91 186.75 111.92 181.45"/>
      <line class="st2" x1="188.35" y1="213.43" x2="127.97" y2="163.12"/>
      <polygon class="st4" points="133.56 164.08 127.97 163.12 129.93 168.44 133.56 164.08"/>
      <line class="st2" x1="188.35" y1="213.43" x2="203.5" y2="231.87"/>
      <polygon class="st4" points="198.2 229.88 203.5 231.87 202.58 226.28 198.2 229.88"/>
      <line class="st2" x1="188.35" y1="213.43" x2="150.35" y2="296.89"/>
      <polygon class="st4" points="149.8 291.24 150.35 296.89 154.96 293.59 149.8 291.24"/>
      <line class="st2" x1="188.35" y1="213.43" x2="218.08" y2="196.46"/>
      <polygon class="st4" points="215.22 201.36 218.08 196.46 212.41 196.43 215.22 201.36"/>
      <line class="st2" x1="188.35" y1="213.43" x2="205.84" y2="360.78"/>
      <polygon class="st4" points="202.45 356.24 205.84 360.78 208.07 355.57 202.45 356.24"/>
      <line class="st2" x1="188.35" y1="213.43" x2="228.67" y2="189.75"/>
      <polygon class="st4" points="225.87 194.68 228.67 189.75 223 189.79 225.87 194.68"/>
      <line class="st2" x1="188.35" y1="213.43" x2="78.32" y2="258.04"/>
      <polygon class="st4" points="81.8 253.57 78.32 258.04 83.93 258.82 81.8 253.57"/>
      <line class="st2" x1="188.35" y1="213.43" x2="200.92" y2="239.64"/>
      <polygon class="st4" points="196.24 236.44 200.92 239.64 201.35 233.99 196.24 236.44"/>
      <line class="st2" x1="188.35" y1="213.43" x2="188.92" y2="315.8"/>
      <polygon class="st4" points="186.06 310.91 188.92 315.8 191.73 310.88 186.06 310.91"/>
      <line class="st2" x1="188.35" y1="213.43" x2="194.55" y2="222.18"/>
      <polygon class="st4" points="189.4 219.82 194.55 222.18 194.02 216.54 189.4 219.82"/>
      <line class="st2" x1="188.35" y1="213.43" x2="180.39" y2="168.54"/>
      <polygon class="st4" points="184.04 172.87 180.39 168.54 178.46 173.86 184.04 172.87"/>
      <line class="st2" x1="188.35" y1="213.43" x2="112.19" y2="168.83"/>
      <polygon class="st4" points="117.86 168.86 112.19 168.83 115 173.76 117.86 168.86"/>
      <line class="st2" x1="188.35" y1="213.43" x2="156.32" y2="111.96"/>
      <polygon class="st4" points="160.5 115.79 156.32 111.96 155.09 117.5 160.5 115.79"/>
      <line class="st2" x1="188.35" y1="213.43" x2="270.91" y2="143.08"/>
      <polygon class="st4" points="269.02 148.43 270.91 143.08 265.34 144.11 269.02 148.43"/>
      <line class="st2" x1="188.35" y1="213.43" x2="84.77" y2="232.29"/>
      <polygon class="st4" points="89.09 228.62 84.77 232.29 90.11 234.2 89.09 228.62"/>
      <line class="st2" x1="188.35" y1="213.43" x2="97.59" y2="189.25"/>
      <polygon class="st4" points="103.07 187.77 97.59 189.25 101.61 193.25 103.07 187.77"/>
      <line class="st2" x1="188.35" y1="213.43" x2="279.1" y2="237.62"/>
      <polygon class="st4" points="273.63 239.09 279.1 237.62 275.09 233.61 273.63 239.09"/>
      <line class="st2" x1="188.35" y1="213.43" x2="285.69" y2="251.55"/>
      <polygon class="st4" points="280.08 252.4 285.69 251.55 282.15 247.12 280.08 252.4"/>
      <line class="st2" x1="188.35" y1="213.43" x2="277.74" y2="197.26"/>
      <polygon class="st4" points="273.42 200.92 277.74 197.26 272.41 195.34 273.42 200.92"/>
      <line class="st2" x1="188.35" y1="213.43" x2="275.64" y2="157.22"/>
      <polygon class="st4" points="273.05 162.27 275.64 157.22 269.98 157.5 273.05 162.27"/>
      <line class="st2" x1="188.35" y1="213.43" x2="169.21" y2="232.91"/>
      <polygon class="st4" points="170.63 227.42 169.21 232.91 174.67 231.39 170.63 227.42"/>
      <line class="st2" x1="188.35" y1="213.43" x2="202.99" y2="160.55"/>
      <polygon class="st4" points="204.41 166.04 202.99 160.55 198.95 164.52 204.41 166.04"/>
      <line class="st2" x1="188.35" y1="213.43" x2="251.28" y2="193.82"/>
      <polygon class="st4" points="247.43 197.99 251.28 193.82 245.75 192.58 247.43 197.99"/>
      <line class="st2" x1="188.35" y1="213.43" x2="301.68" y2="210.53"/>
      <polygon class="st4" points="296.85 213.49 301.68 210.53 296.7 207.82 296.85 213.49"/>
      <line class="st2" x1="188.35" y1="213.43" x2="169.11" y2="281.48"/>
      <polygon class="st4" points="167.72 275.98 169.11 281.48 173.18 277.53 167.72 275.98"/>
      <line class="st2" x1="188.35" y1="213.43" x2="218.27" y2="79.22"/>
      <polygon class="st4" points="219.97 84.63 218.27 79.22 214.43 83.39 219.97 84.63"/>
      <line class="st2" x1="188.35" y1="213.43" x2="159.25" y2="291.22"/>
      <polygon class="st4" points="158.32 285.63 159.25 291.22 163.63 287.61 158.32 285.63"/>
      <line class="st2" x1="188.35" y1="213.43" x2="81.03" y2="224.55"/>
      <polygon class="st4" points="85.62 221.22 81.03 224.55 86.2 226.86 85.62 221.22"/>
      <line class="st2" x1="188.35" y1="213.43" x2="158.68" y2="98.02"/>
      <polygon class="st4" points="162.64 102.07 158.68 98.02 157.15 103.48 162.64 102.07"/>
      <line class="st2" x1="188.35" y1="213.43" x2="224.61" y2="318.02"/>
      <polygon class="st4" points="220.32 314.31 224.61 318.02 225.68 312.45 220.32 314.31"/>
      <line class="st2" x1="188.35" y1="213.43" x2="163.53" y2="247.88"/>
      <polygon class="st4" points="164.1 242.24 163.53 247.88 168.7 245.55 164.1 242.24"/>
      <line class="st2" x1="188.35" y1="213.43" x2="126.29" y2="227.54"/>
      <polygon class="st4" points="130.44 223.69 126.29 227.54 131.7 229.22 130.44 223.69"/>
      <line class="st2" x1="188.35" y1="213.43" x2="225.3" y2="314.08"/>
      <polygon class="st4" points="220.95 310.45 225.3 314.08 226.27 308.5 220.95 310.45"/>
      <line class="st2" x1="188.35" y1="213.43" x2="144.37" y2="93.21"/>
      <polygon class="st4" points="148.71 96.85 144.37 93.21 143.39 98.8 148.71 96.85"/>
      <line class="st2" x1="188.35" y1="213.43" x2="232.95" y2="176.66"/>
      <polygon class="st4" points="230.96 181.97 232.95 176.66 227.36 177.6 230.96 181.97"/>
      <line class="st2" x1="188.35" y1="213.43" x2="227.77" y2="182.56"/>
      <polygon class="st4" points="225.65 187.82 227.77 182.56 222.15 183.36 225.65 187.82"/>
      <line class="st2" x1="188.35" y1="213.43" x2="112.2" y2="287.38"/>
      <polygon class="st4" points="113.74 281.92 112.2 287.38 117.69 285.99 113.74 281.92"/>
      <line class="st2" x1="188.35" y1="213.43" x2="158.18" y2="180.98"/>
      <polygon class="st4" points="163.6 182.65 158.18 180.98 159.45 186.51 163.6 182.65"/>
      <line class="st2" x1="188.35" y1="213.43" x2="252.47" y2="301.78"/>
      <polygon class="st4" points="247.29 299.47 252.47 301.78 251.88 296.14 247.29 299.47"/>
      <line class="st2" x1="188.35" y1="213.43" x2="129.78" y2="83.34"/>
      <polygon class="st4" points="134.38 86.65 129.78 83.34 129.21 88.98 134.38 86.65"/>
      <line class="st2" x1="188.35" y1="213.43" x2="128.22" y2="246.89"/>
      <polygon class="st4" points="131.13 242.03 128.22 246.89 133.89 246.98 131.13 242.03"/>
      <line class="st2" x1="188.35" y1="213.43" x2="278.41" y2="255.23"/>
      <polygon class="st4" points="272.76 255.73 278.41 255.23 275.15 250.59 272.76 255.73"/>
      <line class="st2" x1="188.35" y1="213.43" x2="274.16" y2="194.88"/>
      <polygon class="st4" points="269.96 198.69 274.16 194.88 268.76 193.14 269.96 198.69"/>
      <line class="st2" x1="188.35" y1="213.43" x2="167.66" y2="350.28"/>
      <polygon class="st4" points="165.59 345 167.66 350.28 171.2 345.85 165.59 345"/>
      <text class="st3" transform="translate(32.85 200.8) rotate(5)"><tspan x="0" y="0">HDP na obyv.</tspan></text>
      <text class="st3" transform="translate(11.62 221.63) rotate(-1)"><tspan x="0" y="0">Kontrola korupce</tspan></text>
      <text class="st3" transform="translate(44.24 263.31) rotate(-19)"><tspan x="0" y="0">Délka života</tspan></text>
      <text class="st3" transform="translate(24.75 276.79) rotate(-21)"><tspan x="0" y="0">Výdaje na výzkum</tspan></text>
      <text class="st3" transform="translate(44.84 160.55) rotate(21)"><tspan x="0" y="0">High-tech export</tspan></text>
      <text class="st3" transform="translate(89.45 133.84) rotate(40)"><tspan x="0" y="0">VŠ vzdělání</tspan></text>
      <text class="st3" transform="translate(206.63 236.62) rotate(51)"><tspan x="0" y="0">Spotřeba alkoholu</tspan></text>
      <text class="st3" transform="translate(126.35 356.15) rotate(-66)"><tspan x="0" y="0">Hustota osídlení</tspan></text>
      <text class="st3" transform="translate(232.49 191.89) rotate(-30)"><tspan x="0" y="0">Nezaměstnanost</tspan></text>
      <text class="st3" transform="translate(203.01 364.83) rotate(83)"><tspan x="0" y="0">Sociální odvody</tspan></text>
      <text class="st3" transform="translate(230.26 200.08) rotate(-30)"><tspan x="0" y="0">Výdaje na obranu</tspan></text>
      <text class="st3" transform="translate(8.12 292.47) rotate(-22)"><tspan x="0" y="0">Kvalita infrastruktury</tspan></text>
      <text class="st3" transform="translate(203.31 245.08) rotate(64)"><tspan x="0" y="0">Lesní plocha</tspan></text>
      <text class="st3" transform="translate(190 318.5) rotate(90)"><tspan x="0" y="0">Chráněná území</tspan></text>
      <text class="st3" transform="translate(206.78 224.2) rotate(55)"><tspan x="0" y="0">GINI index</tspan></text>
      <text class="st3" transform="translate(164.47 85.27) rotate(80)"><tspan x="0" y="0">Ženy v managementu</tspan></text>
      <text class="st3" transform="translate(47.65 133.45) rotate(30)"><tspan x="0" y="0">Ženy v parlamentu</tspan></text>
      <text class="st3" transform="translate(130.45 37.87) rotate(72)"><tspan x="0" y="0">Obnovitelná energie</tspan></text>
      <text class="st3" transform="translate(273.12 142.55) rotate(-40)"><tspan x="0" y="0">Práce v zemědělství</tspan></text>
      <text class="st3" transform="translate(12.89 249.42) rotate(-10)"><tspan x="0" y="0">Práce ve službách</tspan></text>
      <text class="st3" transform="translate(27.17 173.29) rotate(15)"><tspan x="0" y="0">Městská populace</tspan></text>
      <text class="st3" transform="translate(281.42 241.14) rotate(15)"><tspan x="0" y="0">Venkovská populace</tspan></text>
      <text class="st3" transform="translate(287.45 255.83) rotate(21)"><tspan x="0" y="0">Znečištění ovzduší</tspan></text>
      <text class="st3" transform="translate(279.64 203.77) rotate(-10)"><tspan x="0" y="0">Úmrtnost v dopravě</tspan></text>
      <text class="st3" transform="translate(280.19 156.92) rotate(-33)"><tspan x="0" y="0">Příjmy ze zahraničí</tspan></text>
      <text class="st3" transform="translate(150.24 248.04) rotate(-45)"><tspan x="0" y="0">Export</tspan></text>
      <text class="st3" transform="translate(208.39 159.66) rotate(-75)"><tspan x="0" y="0">Plodnost</tspan></text>
      <text class="st3" transform="translate(254.47 195.05) rotate(-17)"><tspan x="0" y="0">Index míru</tspan></text>
      <text class="st3" transform="translate(282.51 222.01) rotate(-1)"><tspan x="0" y="0">Index pozitivního míru</tspan></text>
      <text class="st3" transform="translate(156.47 341.02) rotate(-74)"><tspan x="0" y="0">Index terorismu</tspan></text>
      <text class="st3" transform="translate(222.2 76.45) rotate(-77)"><tspan x="0" y="0">Ekologická rizika</tspan></text>
      <text class="st3" transform="translate(147.25 334.71) rotate(-69)"><tspan class="st8" x="0" y="0">Dluh/HD</tspan><tspan x="34.85" y="0">P</tspan></text>
      <text class="st3" transform="translate(24.87 235.31) rotate(-6)"><tspan x="0" y="0">LGBT rovnost</tspan></text>
      <text class="st3" transform="translate(139.59 27.13) rotate(76)"><tspan x="0" y="0">Poč. sex. partnerů</tspan></text>
      <text class="st3" transform="translate(218.32 323.43) rotate(71)"><tspan x="0" y="0">Věk ztráty panenství</tspan></text>
      <text class="st3" transform="translate(123.74 305.89) rotate(-54)"><tspan x="0" y="0">Index promiskuity</tspan></text>
      <text class="st3" transform="translate(52.02 250.88) rotate(-13)"><tspan x="0" y="0">Spotřeba marihuany</tspan></text>
      <text class="st3" transform="translate(226.5 318.5) rotate(70)"><tspan x="0" y="0">Nízká důvěra ve vládu</tspan></text>
      <text class="st3" transform="translate(108.38 8.46) rotate(70)"><tspan x="0" y="0">Vysoká důvěra ve vládu</tspan></text>
      <text class="st3" transform="translate(222.37 176.98) rotate(-40)"><tspan x="0" y="0">Křesťané</tspan></text>
      <text class="st3" transform="translate(238.4 179.84) rotate(-38)"><tspan x="0" y="0">Muslimové</tspan></text>
      <text class="st3" transform="translate(79.76 323.32) rotate(-44)"><tspan x="0" y="0">Bez vyznání</tspan></text>
      <text class="st3" transform="translate(130.62 155.19) rotate(47)"><tspan x="0" y="0">Hinduisté</tspan></text>
      <text class="st3" transform="translate(250.74 305.35) rotate(54)"><tspan x="0" y="0">Bydlení bez hypotéky</tspan></text>
      <text class="st3" transform="translate(93.86 12.9) rotate(66)"><tspan x="0" y="0">Bydlení s hypotékou</tspan></text>
      <text class="st3" transform="translate(66.01 284.93) rotate(-29)"><tspan x="0" y="0">Sportovní úspěchy</tspan></text>
      <text class="st3" transform="translate(281.41 261.22) rotate(25)"><tspan x="0" y="0">Cena nemovitostí/příjem</tspan></text>
      <text class="st3" transform="translate(274.46 194.93) rotate(-12)"><tspan x="0" y="0">Svoboda tisku</tspan></text>
      <text class="st3" transform="translate(159.77 410.1) rotate(-81)"><tspan x="0" y="0">Sociální výdaje</tspan></text>
      <line class="st1" x1="188.35" y1="434.52" x2="188.35" y2="5.48"/>
      <line class="st1" x1="17.1" y1="213.43" x2="362.9" y2="213.43"/>
    </g>
  </g>
</svg>